<svg xmlns="http://www.w3.org/2000/svg" viewBox="0 0 205.97 227.19"><defs><style>.cls-1{fill:#efda52;}.cls-2{fill:#030302;}.cls-3{fill:#0a0a09;}.cls-4{fill:#0c0c08;}.cls-5{fill:#090905;}.cls-6{fill:#080704;}.cls-7{fill:#f2f2ef;}.cls-8{fill:#050503;}.cls-9{fill:#060503;}.cls-10{fill:#f7f5e6;}.cls-11{fill:#bcb88e;}.cls-12{fill:#e6d736;}.cls-13{fill:#e2d338;}</style></defs><g id="Calque_2" data-name="Calque 2"><g id="Calque_1-2" data-name="Calque 1"><path class="cls-1" d="M18.92,212.39c-4.51,0-9.06-.39-13.52.08C.68,213,0,211,0,206.87c.18-27.06.09-54.12.09-81.18C.13,90.61.24,55.54,0,20.46c0-4.91,1.26-6.62,6.05-5.89a38.75,38.75,0,0,0,6,0c.36,1.6.73,3.19,1.07,4.79,1.32,6.19,2.38,6.91,8.73,5.87,2.68,2,5.28,2.95,7.5-.62,1.48.28,2.55-.74,3.81-1.19a20,20,0,0,0,3.52,1.89c1.93.61,3.14-.82,4.15-2.13s.05-2.51-1-3.41c-1.62-1.44-3.3-2.81-5.92-5h78.28c-3.71,10.7-7.57,21.35-11.08,32.11a65.29,65.29,0,0,1-16.36,26A133.08,133.08,0,0,1,48.47,99.14c-3.43,1.66-6.29,3.68-7.6,7.41a8.44,8.44,0,0,0-9.15-3.49,16.6,16.6,0,0,0-2.3-.9c-6-1.3-10.76,1-14.52,5.51-3,3.64-4.7,7.88-2.54,12.45,2.37,5,7.15,5.32,12,5.09,8,2.66,14-.94,17.58-10.52,6.39,7.3,14.62,12.08,22.9,16.81,32,18.25,49.53,47.61,62.1,80.79q-45.09.06-90.19.08c-1.31,0-3.35.79-3.5-1.59-.09-1.38-.66-3.28,1.08-4,1.55-.65,3.38-.59,2.61-3.14-.66-2.19-2.44-2.58-4.25-2.9a26.93,26.93,0,0,0-3.49-.18,21.58,21.58,0,0,0-8.84-1.07c-3.15.35-4.51,3.09-2.7,4.79C20.6,207,18.76,209.67,18.92,212.39ZM34.52,70.11c-1-2.18-2.48-2-4.54-1.54a58.49,58.49,0,0,1-14.3,2.29c-1.41,0-3.84-1.11-3.79,1.68,0,2.34-.39,6.14,2.87,6C21.3,78.36,21.59,82.74,22,87c.48,5.26,3.09,6.08,7.42,4.28,1.67,2.5,4.05,2.19,6.2,1.15,2.32-1.11,1.58-3.46,1.26-5.37-.7-4.26-2.34-8.7,3.81-10.54,1.16-.35,1.37-1.75,1.33-3C41.86,69.52,40.28,68.78,34.52,70.11ZM32.81,142a20,20,0,0,1,3.84.66c2.47.92,3.76-.11,4.43-2.32.73-2.43,0-4.28-2.61-4.82a35.38,35.38,0,0,0-4.85-.34,20.61,20.61,0,0,0-14.17.05c-7,2.47-9.46,8.39-6.3,15.16,3,6.53,8.68,8.22,15.26,8.09,2.63,1.38,5.49,1.16,8.16.57,2.49-.56,6-1.85,5.33-4.69-.89-4-4.14-1.41-6.48-.88-1.91-3.82-4.71-1.44-7.23-1.05-3.43-5.19-2.94-7,2.84-10.2C31.63,142.1,32.22,142,32.81,142Zm1.35-85.19c.71,1.72,1.26,3.59,3.86,2.69,2.34-.81,3.79-2.2,3.26-4.82A45.47,45.47,0,0,0,34.6,37.52c-2-2.85-4.74-3.48-8-2.46-5.63-2.5-7.17-2-9.77,3.28a53.21,53.21,0,0,0-4.5,14.1c-1,5.35,1.33,7.13,6.79,5.59,5.39,3,5.9,2.85,7.91-2.51C28.61,60.65,31.44,58.41,34.16,56.77ZM25.51,176.91a26.83,26.83,0,0,0-.17-3.92c-.33-1.8,1.34-4.5-2.22-5-3.15-.42-3.81,1.74-4.54,4-.88-1.71,1.34-5.08-2.85-5-3.79,0-4.23,2.63-4.33,5.37a48.19,48.19,0,0,0,1.38,12.82c1.49,6.31,2,6.63,8.48,5.9,2.93,1.75,5.78,2.93,8-1a7.56,7.56,0,0,0,5.93-.41A4.47,4.47,0,0,0,41,190.89c2.3-1.16.89-3.17.64-4.89a61.6,61.6,0,0,1-.55-13.5c.51-6.81.17-7.05-6.45-4.71-.55-2.53-2.29-2.32-4.25-2s-3,1.57-3.7,3.49C25.79,171.78,27.32,174.59,25.51,176.91Z"/><path class="cls-1" d="M115.86,144.81c-2.16,0-2.42-2-3.36-3.22-8.36-10.71-17-21-29.21-27.76-5-2.77-.64-4,1.24-5.24q38.14-25.08,53.64-68a85.38,85.38,0,0,0,4.89-21.93c.25-3,1.35-4.15,4.61-4.12q27.08.26,54.16,0c3.36,0,4.15,1,4.14,4.25q-.12,94.77,0,189.55c0,2.87-.5,4.12-3.79,4.09-18.39-.16-36.77-.1-55.16-.05-2.1,0-3.25-.34-3.68-2.8-4-22.8-13.89-43.07-26.69-62.09-.53-.79-1.37-1.54-.78-2.68,4.58,2.87,5-1.4,6.46-3.79.13.65.26,1.3.37,1.95.33,1.93,1.06,3.61,3.27,3.81,2.61.24,2-2.33,2.54-3.55,3.54-8.26,3.46-17.15,4.14-25.9a151.36,151.36,0,0,1,7.88,22.55l-7.87.42c4.27,7.74,11.41,8.18,18.22,9.27,4.57.49,9,2.08,13.73,1.3a85.42,85.42,0,0,0,18.31-2.26c1.64-.38,4.36-.1,4.55-2.22s-2.18-3.5-4-3.92c-5.86-1.33-5.45-5.85-5.33-10a12.5,12.5,0,0,1,4.29-8.75c1.41-1.35,3.61-3.16,1-5.38-3.34-2.83-6.81-5.46-11.65-4.21-13.27-4.51-26.21-1.28-39.15,1.69-.94-1.09-.79-2.47-1.06-3.74-1.29-6-4.07-7.93-10.56-7.55-.8-.19-1.61-.36-2.41-.58-5.1-1.45-7-.15-7.4,5.12-.15,2.31,0,4.64.06,7C111.36,125.84,114.65,135.16,115.86,144.81Zm34.9-57c.66-4.75.05-9.66,1.86-14.26,2.93.59,5.87,1.12,8.78,1.82,1,.24,2.57.25,2.07,2.07s-1.3,3.75,1.16,4.63c2.8,1,2.77-2.13,4.18-3.19.39-.29.74-.62,1.11-.93.46,1.79-.87,4.33,1.8,5.18s3.09-2,4.11-3.38a59.39,59.39,0,0,0,4.87-8.16c4.08-8,2-11.12-6.92-10.62-3.35-1.73-7-2-10.66-2.11-7.67-.27-15.29.5-22.94.9-9.24.49-10.35,2.53-9.32,12.64.16,1.61,1.08,3.14,1.49,4.74,1.86,7.22.34,10.28-6.45,12.69-2.54.9-2.27,1.88-.53,3.39,2.77,2.39,5.51,4.83,8.17,7.33,2.2,2.07,4.45,2.5,7,.63,1.22,1.39,2.89,3.28,4.51,2.23,3.55-2.29,7.62-2,11.35-3.25,5.07-.11,10.16-.15,15.2-.37,6.18-.26,12.28,2,18.43.34a7.33,7.33,0,0,0,2.21.69c2.74-.09,7.15,1.35,7.07-2.76s-4.36-3.29-7.44-3A184.18,184.18,0,0,0,150.76,87.78Z"/><path class="cls-2" d="M126.91,212.25c-12.57-33.18-30.11-62.53-62.1-80.79-8.28-4.72-16.51-9.5-22.9-16.8-1.6-2.55-3.51-5.06-1-8.13,1.31-3.72,4.17-5.75,7.6-7.41A133,133,0,0,0,84.77,72.84a65.18,65.18,0,0,0,16.36-26c3.52-10.76,7.37-21.41,11.08-32.11,1.31-2.69,2.44-5.49,4-8.06C120,.19,129.82-.59,135,4.82c1.82,1.89,1.68,3.86,1.59,6-1.15,25.1-10.94,46.85-26.09,66.42-9.58,12.38-20.8,23.07-34.37,31.05-3.18,1.87-2.8,3.12.16,4.61a60.17,60.17,0,0,1,17.2,13.61c21.32,23.37,36.55,50,42.59,81.35,1.23,6.38,1.71,12.88.34,19.33-3.81.22-5.34-1.62-6.07-5.1S128.09,215.52,126.91,212.25Z"/><path class="cls-3" d="M33.17,23.42c-1.25.45-2.32,1.48-3.81,1.19l-8.17-6-.38-.72c-.07.2-.14.4-.22.59h.69c-1.24,2.36,2,4.33.59,6.7-6.35,1-7.41.32-8.73-5.87-.34-1.6-.71-3.19-1.07-4.79,0-3-.06-6,0-9,0-2.4.78-4.06,3.65-4.34C19,1,19.09,3,19.22,5.77l5.35-4.54C26.8-.66,29-.3,30.59,1.85c1.93,2.53-1.09,2.82-2.12,4a5.83,5.83,0,0,1-.78.61c-5,4-5,4-.17,7.87,1.68,1.36,3.27,2.83,5,4.09C34.6,19.93,34.73,21.53,33.17,23.42Z"/><path class="cls-4" d="M18.92,212.39c-.16-2.71,1.68-5.38-1.29-8.15-1.81-1.69-.45-4.44,2.7-4.79a21.58,21.58,0,0,1,8.84,1.07c.71,2.24,2.53,4.41-2,5.33-2.5.51-1.42,12,1.23,13.29,2.88,1.39,1.87,3.25.64,4.83s-9.62.86-11-.64c-1.12-1.22-1.67-3.12-.52-4.06C20.09,217.18,18.68,214.7,18.92,212.39Z"/><path class="cls-5" d="M21.26,191c-6.45.74-7,.42-8.48-5.9a48.1,48.1,0,0,1-1.38-12.82c.1-2.74.55-5.35,4.33-5.37,4.2,0,2,3.33,2.85,5.05.2,5.91.2,5.91,6.93,4.94,1.81-2.32.28-5.12,1.14-7.63.66-1.92,1.61-3.14,3.7-3.49s3.7-.54,4.25,2c-2.13,7.31-.14,14.52.53,21.77a7.56,7.56,0,0,1-5.93.41c-.48-1.06-1.37-2.12-1.36-3.17.05-5.06-3.42-4.08-6.08-3.32-3.55,1-.25,3.14-.21,4.73A4.82,4.82,0,0,1,21.26,191Z"/><path class="cls-6" d="M24.33,125.18c-4.82.24-9.6-.07-12-5.09-2.16-4.57-.49-8.81,2.54-12.45,3.76-4.52,8.5-6.81,14.52-5.51a14.79,14.79,0,0,1,2.3.9c3.16,3.25,3.94,7,2.74,11.37C33,119.79,29.15,123,24.33,125.18ZM26,115.92c-.43-2.38-1.64-4-4.24-4.08a2.18,2.18,0,0,0-2.55,2.39,4.36,4.36,0,0,0,3.89,4.48C24.75,119,25.78,117.67,26,115.92Z"/><path class="cls-6" d="M19.18,58c-5.47,1.54-7.76-.24-6.79-5.59a53.21,53.21,0,0,1,4.5-14.1c2.6-5.27,4.14-5.78,9.77-3.28,4.15,6.66,7.63,13.56,7.52,21.71-2.72,1.64-5.55,3.89-7.08-1.25-.87-4.31-3.91-1.29-5.8-1.47C18.64,53.8,19.37,56.38,19.18,58Zm3.59-13.1a9.54,9.54,0,0,0-1.87,5.68c1.66.18,3.54.62,4-.52C25.55,48.15,24.15,46.47,22.77,44.93Z"/><path class="cls-6" d="M28.19,152.37c2.52-.39,5.33-2.76,7.23,1-1.43,2.94-4.1,4.14-7,5-6.59.13-12.21-1.56-15.26-8.09-3.17-6.77-.74-12.69,6.3-15.16a20.66,20.66,0,0,1,14.17-.05c1.45,2.48.32,4.65-.81,6.82l-1.77.22a6.69,6.69,0,0,0-4.22-1.09c-2.94,0-5.72.7-7.25,3.38a5,5,0,0,0,.71,6C22.4,152.74,25.05,153.89,28.19,152.37Z"/><path class="cls-6" d="M29.4,91.31c-4.33,1.8-6.94,1-7.42-4.28-.39-4.3-.68-8.68-7.22-8.46-3.26.11-2.83-3.69-2.87-6-.05-2.8,2.38-1.68,3.79-1.68A58.49,58.49,0,0,0,30,68.56c2.06-.52,3.58-.64,4.54,1.54.61,3,.63,5.67-3.13,6.63C29.13,77.31,29,79,29.05,81,29.08,84.46,31,87.83,29.4,91.31Z"/><path class="cls-7" d="M21.19,18.66l8.17,6c-2.22,3.57-4.81,2.61-7.49.62,1.39-2.37-1.82-4.34-.59-6.7Z"/><path class="cls-8" d="M190,100.1c-6.16,1.68-12.25-.6-18.43-.34-5,.21-10.13.26-15.2.37-5.45-2.25-10.65-.56-15.86,1-2.51,1.86-4.76,1.44-7-.63-2.67-2.51-5.4-4.94-8.17-7.33-1.74-1.5-2-2.48.53-3.39,6.79-2.41,8.31-5.47,6.45-12.69-.41-1.6-1.33-3.13-1.49-4.74-1-10.11.08-12.16,9.32-12.64,7.64-.4,15.27-1.17,22.94-.9,3.66.13,7.31.38,10.66,2.11A5.36,5.36,0,0,1,174.83,68c-1.57,2.88-2.94,5.87-4.39,8.81L169.86,78l.06,0c-.37.31-.72.64-1.11.93-1.41,1.06-1.39,4.18-4.18,3.19-2.46-.88-1.64-2.84-1.16-4.63s-1.09-1.83-2.07-2.07c-2.9-.7-5.85-1.23-8.77-1.82-7.61-2.42-7.61-2.42-8.27,5-.18,2-.28,4-.56,6-.34,2.39.11,3.87,3,3.44a37.31,37.31,0,0,1,4-.17,184.2,184.2,0,0,1,41.07,7.27C193.32,97.49,192,98.9,190,100.1Z"/><path class="cls-9" d="M150.86,149.58c-6.82-1.09-14-1.52-18.22-9.27l7.87-.42a152.1,152.1,0,0,0-7.88-22.55c0-.51,0-1,0-1.54,12.95-3,25.88-6.21,39.15-1.7,6.81,4.19,6.72,4.12,1.74,10.61-3,3.86-2.32,8.29-1.76,12.84.42,3.43,3.1,2.9,4.88,4s3.47,2,4.14,4.33c-5.15,2.15-10.58,2.74-16,3.39Zm.9-24.38c-7.22-1.33-7.22-1.32-6,5.61.23,1.31.58,2.6.82,3.92,1.24,6.7,1.23,6.7,8,6.1a24.33,24.33,0,0,1,4.44-.62c5.59.21,7.14-2.27,6.95-7.8-.15-4.53-1.45-6.22-5.77-6.3C157.38,126.05,154.57,125.52,151.76,125.2Z"/><path class="cls-8" d="M115.86,144.81c-1.21-9.65-4.5-19-4.63-28.79,0-2.32-.21-4.66-.06-7,.34-5.27,2.3-6.57,7.4-5.12.79.23,1.6.39,2.4.58,2.63,2.18,3.3,5.23,3.7,8.4,1.2,9.54-.16,18.86-2.36,28.11-1.49,2.39-1.88,6.67-6.46,3.79Z"/><path class="cls-10" d="M156.36,100.13c-3.73,1.22-7.81,1-11.36,3.25-1.62,1.05-3.29-.84-4.51-2.23"/><path class="cls-11" d="M164.74,149.29c-.05.53-.09,1.07-.14,1.6-4.69.77-9.16-.82-13.73-1.31Z"/><path class="cls-7" d="M21.28,18.54h-.69c.07-.2.14-.4.22-.59l.38.72Z"/><path class="cls-12" d="M170.44,76.8c.21.59.17,1-.58,1.15C170.05,77.57,170.24,77.18,170.44,76.8Z"/><path class="cls-13" d="M151.76,125.2c2.81.31,5.63.84,8.44.89,4.33.08,5.62,1.77,5.77,6.3.19,5.53-1.36,8-6.95,7.8a25.23,25.23,0,0,0-4.44.62Z"/></g></g></svg>